<?xml version="1.0" encoding="UTF-8" standalone="no"?><!DOCTYPE svg PUBLIC "-//W3C//DTD SVG 1.1//EN" "http://www.w3.org/Graphics/SVG/1.1/DTD/svg11.dtd"><svg width="100%" height="100%" viewBox="0 0 6667 1667" version="1.1" xmlns="http://www.w3.org/2000/svg" xmlns:xlink="http://www.w3.org/1999/xlink" xml:space="preserve" xmlns:serif="http://www.serif.com/" style="fill-rule:evenodd;clip-rule:evenodd;stroke-linejoin:round;stroke-miterlimit:2;"><path d="M6650.15,251.304c-0,-127.665 -103.648,-231.313 -231.314,-231.313l-6170.98,-0c-127.665,-0 -231.313,103.648 -231.313,231.313l-0,1165.77c-0,127.665 103.648,231.313 231.313,231.313l6170.98,0c127.666,0 231.314,-103.648 231.314,-231.313l-0,-1165.77Z" style="fill:#95c0d4;fill-opacity:0.7;"/><path d="M6517.81,338.329c0,-109.045 -88.531,-197.576 -197.576,-197.576l-5974.45,0c-109.045,0 -197.576,88.531 -197.576,197.576l-0,995.737c-0,109.045 88.531,197.575 197.576,197.575l5974.45,0c109.045,0 197.576,-88.53 197.576,-197.575l0,-995.737Zm-3040.55,283.834l0,-78.735l309.448,0l0,150.147l-106.201,-0l0,479.126c0,100.504 -27.466,177.205 -82.397,230.102c-54.932,52.897 -139.567,79.346 -253.907,79.346c-126.546,-0 -220.947,-23.194 -283.203,-69.58l99.488,-134.888c52.49,32.145 104.166,48.218 155.029,48.218c42.724,-0 75.785,-6.409 99.182,-19.226c23.397,-12.818 39.673,-32.552 48.828,-59.204c9.155,-26.652 13.733,-62.561 13.733,-107.727l0,-34.79c-67.546,59.814 -133.057,89.721 -196.533,89.721c-52.49,0 -98.979,-13.936 -139.466,-41.809c-40.486,-27.873 -71.716,-66.833 -93.688,-116.882c-21.973,-50.049 -32.959,-107.422 -32.959,-172.119c-0,-63.477 11.698,-120.24 35.095,-170.288c23.397,-50.049 56.457,-89.01 99.182,-116.883c42.724,-27.872 90.332,-41.809 142.822,-41.809c76.091,0 137.94,29.094 185.547,87.28Zm2360.84,285.035l-478.516,-0c4.883,49.235 21.871,88.195 50.965,116.882c29.093,28.687 66.63,43.03 112.609,43.03c50.863,-0 100.505,-25.228 148.926,-75.684l158.692,51.27c-34.994,52.49 -78.329,91.858 -130.005,118.103c-51.677,26.245 -112.915,39.367 -183.716,39.367c-70.801,0 -133.362,-13.326 -187.683,-39.978c-54.321,-26.652 -96.436,-64.392 -126.343,-113.22c-29.907,-48.828 -44.861,-106.201 -44.861,-172.119c0,-65.104 15.564,-124.105 46.692,-177.002c31.128,-52.897 73.242,-94.299 126.343,-124.206c53.1,-29.908 110.779,-44.861 173.035,-44.861c67.545,-0 126.342,15.564 176.391,46.692c50.049,31.128 88.603,75.276 115.662,132.446c27.059,57.169 40.995,123.596 41.809,199.28Zm-3572.39,-107.422l0,237.427l103.76,-0l-0,147.705l-307.617,-0l-0,-50.049c-58.187,39.876 -116.374,59.814 -174.561,59.814c-70.394,0 -126.749,-18.107 -169.067,-54.321c-42.318,-36.214 -63.477,-85.042 -63.477,-146.484c0,-65.105 23.702,-117.29 71.106,-156.556c47.404,-39.266 110.372,-58.899 188.904,-58.899c27.262,0 51.575,2.951 72.937,8.851c21.362,5.9 46.082,15.97 74.158,30.212l-0,-51.27c-0,-32.552 -10.173,-58.593 -30.518,-78.125c-20.345,-19.531 -50.862,-29.296 -91.553,-29.296c-44.352,-0 -83.618,17.089 -117.797,51.269l-164.795,-29.907c50.048,-100.912 153.401,-151.367 310.058,-151.367c107.422,-0 184.021,22.074 229.798,66.223c45.776,44.149 68.664,112.406 68.664,204.773Zm717.774,-263.672l-0,192.261c-56.153,3.662 -100.81,12.512 -133.973,26.55c-33.162,14.038 -58.797,38.147 -76.904,72.327c-18.107,34.179 -27.161,83.007 -27.161,146.484l0,63.477l127.564,-0l-0,147.705l-449.829,-0l-0,-147.705l117.798,-0l-0,-343.628l-111.695,-0l0,-150.147l299.073,0l-0,162.964c15.055,-49.235 42.928,-90.129 83.618,-122.681c40.69,-32.552 91.146,-48.828 151.367,-48.828c8.952,0 15.666,0.407 20.142,1.221Zm3461.91,-0l-0,192.261c-56.153,3.662 -100.81,12.512 -133.973,26.55c-33.162,14.038 -58.797,38.147 -76.904,72.327c-18.107,34.179 -27.16,83.007 -27.16,146.484l-0,63.477l127.563,-0l0,147.705l-449.829,-0l-0,-147.705l117.798,-0l-0,-343.628l-111.695,-0l0,-150.147l299.073,0l-0,162.964c15.055,-49.235 42.928,-90.129 83.618,-122.681c40.69,-32.552 91.146,-48.828 151.367,-48.828c8.952,0 15.666,0.407 20.142,1.221Zm-2200.93,501.099l-0,147.705l-396.118,-0l-0,-147.705l97.656,-0l0,-343.628l-97.656,-0l-0,-150.147l300.903,0l0,493.775l95.215,-0Zm759.888,-261.231l-0,261.231l96.435,-0l0,147.705l-301.514,-0l0,-392.456c0,-30.111 -4.577,-51.982 -13.732,-65.613c-9.156,-13.631 -24.516,-20.447 -46.082,-20.447c-39.062,-0 -78.328,14.038 -117.798,42.114l0,288.697l100.098,-0l-0,147.705l-401.001,-0l-0,-147.705l97.656,-0l0,-343.628l-97.656,-0l-0,-150.147l300.903,0l0,60.425c61.035,-45.98 123.698,-68.97 187.988,-68.97c63.884,0 112.305,20.244 145.264,60.73c32.959,40.487 49.439,100.606 49.439,180.359Zm-3870.85,-510.864l469.971,-0l-0,156.25l-119.019,-0l0,607.3l119.019,-0l-0,156.25l-463.867,-0l-0,-156.25l111.084,-0l-0,-607.3l-21.363,-0l-285.034,763.55l-98.267,-0l-288.696,-763.55l-21.362,-0l-0,607.3l118.408,-0l0,156.25l-388.794,-0l0,-156.25l120.239,-0l0,-607.3l-120.239,-0l0,-156.25l462.647,-0l201.416,538.33l203.857,-538.33Zm799.561,802.002c36.621,-0 79.549,-21.973 128.784,-65.918l-0,-57.373c-43.946,-28.483 -84.229,-42.725 -120.85,-42.725c-29.297,0 -51.676,6.917 -67.139,20.752c-15.462,13.835 -23.193,33.569 -23.193,59.204c0,57.373 27.466,86.06 82.398,86.06Zm1416.63,-38.452c37.434,-0 68.257,-14.344 92.468,-43.03c24.21,-28.687 36.316,-68.461 36.316,-119.324c-0,-51.676 -11.495,-92.366 -34.485,-122.07c-22.99,-29.704 -54.423,-44.556 -94.299,-44.556c-38.656,0 -69.174,15.259 -91.553,45.776c-22.38,30.518 -33.57,70.394 -33.57,119.629c0,47.201 11.19,86.263 33.57,117.188c22.379,30.924 52.897,46.387 91.553,46.387Zm2144.78,-363.77c-36.621,0 -66.02,10.58 -88.196,31.738c-22.176,21.159 -36.112,53.508 -41.809,97.046l267.334,0c-5.697,-38.248 -21.261,-69.275 -46.692,-93.078c-25.431,-23.804 -55.644,-35.706 -90.637,-35.706Zm-1332.4,-303.955c0,32.552 -11.088,59.509 -33.264,80.872c-22.176,21.362 -48.523,32.043 -79.04,32.043c-30.925,0 -57.475,-11.088 -79.651,-33.264c-22.176,-22.176 -33.264,-48.727 -33.264,-79.651c-0,-30.518 11.088,-56.864 33.264,-79.041c22.176,-22.176 48.726,-33.264 79.651,-33.264c30.517,0 56.864,11.088 79.04,33.264c22.176,22.177 33.264,48.523 33.264,79.041Z" style="fill-opacity:0.67;"/></svg>